HIERARCHY
ROOT Hips
{
	OFFSET 0.000000 0.000000 0.000000 
	CHANNELS 6 Xposition Yposition Zposition Zrotation Yrotation Xrotation
	JOINT LeftUpLeg
	{
		OFFSET 1.363060 -1.794630 0.839290 
		CHANNELS 3 Zrotation Yrotation Xrotation
		JOINT LeftLeg
		{
			OFFSET 2.448110 -6.726130 0.000000 
			CHANNELS 3 Zrotation Yrotation Xrotation
			JOINT LeftFoot
			{
				OFFSET 2.562200 -7.039590 0.000000 
				CHANNELS 3 Zrotation Yrotation Xrotation
				JOINT LeftToeBase
				{
					OFFSET 0.157640 -0.433110 2.322550 
					CHANNELS 3 Zrotation Yrotation Xrotation
					End Site
					{
						OFFSET 0.000000 0.000000 0.000000 
					}
				}
			}
		}
	}
	JOINT RightUpLeg
	{
		OFFSET -1.305520 -1.794630 0.839290 
		CHANNELS 3 Zrotation Yrotation Xrotation
		JOINT RightLeg
		{
			OFFSET -2.542530 -6.985550 0.000000 
			CHANNELS 3 Zrotation Yrotation Xrotation
			JOINT RightFoot
			{
				OFFSET -2.568260 -7.056230 0.000000 
				CHANNELS 3 Zrotation Yrotation Xrotation
				JOINT RightToeBase
				{
					OFFSET -0.164730 -0.452590 2.363150 
					CHANNELS 3 Zrotation Yrotation Xrotation
					End Site
					{
						OFFSET 0.000000 0.000000 0.000000 
					}
				}
			}
		}
	}
	JOINT Spine
	{
		OFFSET 0.028270 2.035590 -0.193380 
		CHANNELS 3 Zrotation Yrotation Xrotation
		JOINT Spine1
		{
			OFFSET 0.056720 2.048850 -0.042750 
			CHANNELS 3 Zrotation Yrotation Xrotation
			JOINT Neck1
			{
				OFFSET -0.054170 1.746240 0.172020 
				CHANNELS 3 Zrotation Yrotation Xrotation
				JOINT Head
				{
					OFFSET 0.104070 1.761360 -0.123970 
					CHANNELS 3 Zrotation Yrotation Xrotation
					End Site
					{
						OFFSET 0.000000 0.000000 0.000000 
					}
				}
			}
			JOINT LeftArm
			{
				OFFSET 3.362410 1.200890 -0.311210 
				CHANNELS 3 Zrotation Yrotation Xrotation
				JOINT LeftForeArm
				{
					OFFSET 4.983000 -0.000000 -0.000000 
					CHANNELS 3 Zrotation Yrotation Xrotation
					JOINT LeftHand
					{
						OFFSET 3.483560 -0.000000 -0.000000 
						CHANNELS 3 Zrotation Yrotation Xrotation
						JOINT LeftHandIndex1
						{
							OFFSET 0.715260 -0.000000 -0.000000 
							CHANNELS 3 Zrotation Yrotation Xrotation
							End Site
							{
								OFFSET 0.000000 0.000000 0.000000 
							}
						}
					}
				}
			}
			JOINT RightArm
			{
				OFFSET -3.136600 1.374050 -0.404650 
				CHANNELS 3 Zrotation Yrotation Xrotation
				JOINT RightForeArm
				{
					OFFSET -5.241900 -0.000000 -0.000000 
					CHANNELS 3 Zrotation Yrotation Xrotation
					JOINT RightHand
					{
						OFFSET -3.444170 -0.000000 -0.000000 
						CHANNELS 3 Zrotation Yrotation Xrotation
						JOINT RightHandIndex1
						{
							OFFSET -0.622530 -0.000000 -0.000000 
							CHANNELS 3 Zrotation Yrotation Xrotation
							End Site
							{
								OFFSET 0.000000 0.000000 0.000000 
							}
						}
					}
				}
			}
		}
	}
}
MOTION
Frames: 9
Frame Time: 0.041667
-15.747488 17.896555 2.662699 0.844732 83.035146 5.913024 -17.395810 -5.183734 -12.286767 0.166840 7.191177 23.694446 2.058690 -8.046611 -1.149914 0.068200 -1.684800 -4.635300 12.857026 6.361564 -29.616878 -3.744512 -13.104832 39.319767 1.336021 -8.043044 -8.576213 -0.145400 -2.457000 6.770500 1.505086 -0.576517 -0.818036 4.137922 0.141877 -1.087376 -0.853885 7.223652 30.358731 2.050800 1.883700 15.676900 -73.615746 -3.824198 17.541758 10.305998 -20.631894 -2.245385 -0.454311 -1.795978 11.610713 -7.125000 0.000000 0.000000 74.849997 -4.920137 7.707457 -17.166138 24.672114 -4.801746 0.581269 -0.744081 24.394422 7.125000 0.000000 0.000000 
-15.680049 17.871581 2.642983 11.187683 82.940184 15.575071 -19.269401 -4.798598 -10.934721 0.024584 6.809375 22.752263 1.918774 -7.618522 -1.245162 0.099500 -2.034000 -5.599500 11.502696 6.416581 -29.579666 -3.838499 -13.250487 39.684273 1.054321 -6.943248 -8.741297 -0.597400 -4.948000 13.760200 1.126031 -0.391617 -0.650839 4.313662 0.223343 -1.086191 -0.791132 7.056900 30.373021 2.039700 1.843600 15.657900 -73.435362 -3.870394 17.633233 10.127342 -20.364983 -2.172726 -0.461092 -1.801057 11.627008 -7.125000 0.000000 0.000000 75.021769 -4.925951 7.601720 -17.230123 24.738307 -4.830681 0.583338 -0.746027 24.130892 7.125000 0.000000 0.000000 
-15.623023 17.861774 2.626705 13.149744 83.231756 17.459185 -19.617470 -4.664624 -10.657220 0.004924 6.740567 22.593353 1.935219 -7.763642 -1.267299 0.111300 -2.151100 -5.923400 11.476538 6.662411 -29.799138 -3.781849 -13.193201 39.421549 1.256362 -7.625491 -8.032611 -0.178100 -2.718400 7.495800 1.057900 -0.365830 -0.619507 4.338673 0.231683 -1.036301 -0.669191 7.026251 30.522378 2.095900 1.840700 15.741300 -73.372202 -3.849288 17.751338 10.000938 -20.176252 -2.117203 -0.478818 -1.809195 11.583280 -7.125000 0.000000 0.000000 75.018795 -4.900518 7.652231 -17.265867 24.784561 -4.850493 0.575383 -0.754894 23.991342 7.125000 0.000000 0.000000 
-15.565998 17.862886 2.611639 11.651188 83.761859 16.054729 -19.321184 -4.615418 -10.515735 -0.031714 6.655318 22.364354 2.009363 -8.181224 -1.059048 0.103800 -2.077600 -5.720200 11.959197 6.893990 -30.154722 -3.697776 -13.117635 39.155008 1.076804 -6.963156 -8.336681 -0.768600 -5.598300 15.623200 1.140054 -0.483710 -0.642771 4.337888 0.166054 -0.996560 -0.588378 7.117053 30.706627 2.163200 1.869200 15.840500 -73.490799 -3.757514 17.533006 9.910937 -20.036479 -2.074465 -0.498071 -1.818550 11.617392 -7.125000 0.000000 0.000000 74.855071 -4.840533 7.829950 -17.245041 24.770963 -4.845191 0.561706 -0.767169 24.114181 7.125000 0.000000 0.000000 
-15.511197 17.866728 2.598698 7.753740 84.451786 12.281167 -18.673774 -4.907514 -10.443289 -0.032318 6.661119 22.377694 2.080342 -8.516698 -0.912860 0.073100 -1.744300 -4.799400 12.714094 7.099581 -30.457904 -3.559763 -12.974785 38.675619 0.948866 -6.529434 -8.755079 -1.400700 -7.486800 21.165800 1.248946 -0.585267 -0.685181 4.203458 0.110824 -1.024840 -0.572605 7.080288 30.800818 2.166100 1.856700 15.884000 -73.602742 -3.684548 17.307348 9.823760 -19.896117 -2.029381 -0.530195 -1.830841 11.569627 -7.125000 0.000000 0.000000 74.747148 -4.844324 8.102012 -17.276887 24.818037 -4.861689 0.547647 -0.761791 23.917770 7.125000 0.000000 0.000000 
-15.456902 17.865717 2.574128 7.198793 85.018002 11.766072 -18.552264 -5.512716 -10.154840 -0.031832 6.662697 22.405228 2.089319 -8.621646 -0.785051 0.029800 -1.115200 -3.065800 12.972090 7.166027 -30.770587 -3.415398 -12.825344 38.106940 0.986091 -6.624307 -8.462330 -1.541300 -7.837100 22.220400 1.229465 -0.612203 -0.700831 3.992607 0.097062 -1.059954 -0.602353 6.956285 30.885705 2.137200 1.803700 15.948200 -73.698801 -3.626783 17.267241 9.773725 -19.811479 -2.002146 -0.548855 -1.837646 11.526425 -7.125000 0.000000 0.000000 74.706042 -4.841186 8.229919 -17.337839 24.893516 -4.890987 0.543724 -0.752403 23.655593 7.125000 0.000000 0.000000 
-15.399371 17.862785 2.551075 9.736754 85.362502 14.312979 -18.854925 -5.839385 -9.874324 -0.026898 6.655413 22.420261 2.091529 -8.683861 -0.881016 0.022300 -0.964300 -2.650500 12.917922 7.200407 -31.094179 -3.282567 -12.683596 37.518216 1.199676 -7.300716 -7.362458 -1.175400 -6.881400 19.364300 1.151139 -0.636555 -0.714081 3.908573 0.087936 -1.067934 -0.692087 6.910924 31.123854 2.077400 1.781600 16.110800 -73.803721 -3.479439 17.180970 9.757697 -19.787145 -1.993288 -0.556292 -1.837590 11.446686 -7.125000 0.000000 0.000000 74.619013 -4.823518 8.406317 -17.351880 24.915568 -4.899441 0.542549 -0.755008 23.637827 7.125000 0.000000 0.000000 
-15.338706 17.859853 2.536313 11.740078 85.635982 16.349362 -19.070986 -5.870553 -9.683818 -0.031309 6.626140 22.363936 2.125028 -8.894637 -0.963647 0.019900 -0.910200 -2.501700 12.944928 7.307106 -31.414502 -3.152406 -12.539718 36.944489 1.338343 -7.735385 -6.451736 -1.000300 -6.364600 17.846100 1.111560 -0.657097 -0.732921 3.927190 0.079989 -1.063458 -0.783189 6.935856 31.360078 2.018400 1.794300 16.255700 -74.014432 -3.344426 16.757659 9.702727 -19.695698 -1.966650 -0.574317 -1.836640 11.769822 -7.125000 0.000000 0.000000 74.495408 -4.791723 8.593617 -17.322599 24.888220 -4.889218 0.542429 -0.771664 23.762799 7.125000 0.000000 0.000000 
-15.276423 17.854292 2.521046 13.110146 85.933411 17.751132 -19.190887 -5.798856 -9.495642 -0.048919 6.570140 22.225781 2.175878 -9.200247 -0.999631 0.014700 -0.783600 -2.153600 13.025483 7.418491 -31.714523 -3.013397 -12.387178 36.362773 1.375220 -7.834410 -6.024985 -1.121900 -6.728400 18.913100 1.124724 -0.692092 -0.721353 3.987494 0.059448 -0.990854 -0.803668 6.995852 31.460184 2.028100 1.806400 16.314000 -74.346266 -3.359716 16.060777 9.581734 -19.485303 -1.915535 -0.588216 -1.826720 12.304917 -7.125000 0.000000 0.000000 74.254464 -4.687551 8.831445 -17.306451 24.880596 -4.887610 0.538691 -0.791119 23.795539 7.125000 0.000000 0.000000 
